<?xml version="1.0" encoding="UTF-8"?>
<!DOCTYPE svg PUBLIC "-//W3C//DTD SVG 1.1//EN" "http://www.w3.org/Graphics/SVG/1.1/DTD/svg11.dtd">
<svg version="1.2" width="94.73mm" height="94.73mm" viewBox="5764 10114 9473 9473" preserveAspectRatio="xMidYMid" fill-rule="evenodd" stroke-width="28.222" stroke-linejoin="round" xmlns="http://www.w3.org/2000/svg" xmlns:ooo="http://xml.openoffice.org/svg/export" xmlns:xlink="http://www.w3.org/1999/xlink" xmlns:presentation="http://sun.com/xmlns/staroffice/presentation" xmlns:smil="http://www.w3.org/2001/SMIL20/" xmlns:anim="urn:oasis:names:tc:opendocument:xmlns:animation:1.0" xml:space="preserve">
 <defs class="ClipPathGroup">
  <clipPath id="presentation_clip_path" clipPathUnits="userSpaceOnUse">
   <rect x="5764" y="10114" width="9473" height="9473"/>
  </clipPath>
  <clipPath id="presentation_clip_path_shrink" clipPathUnits="userSpaceOnUse">
   <rect x="5773" y="10123" width="9455" height="9455"/>
  </clipPath>
 </defs>
 <defs class="TextShapeIndex">
  <g ooo:slide="id1" ooo:id-list="id3 id4 id5 id6 id7 id8 id9 id10 id11 id12"/>
 </defs>
 <defs class="EmbeddedBulletChars">
  <g id="bullet-char-template-57356" transform="scale(0.00048828125,-0.00048828125)">
   <path d="M 580,1141 L 1163,571 580,0 -4,571 580,1141 Z"/>
  </g>
  <g id="bullet-char-template-57354" transform="scale(0.00048828125,-0.00048828125)">
   <path d="M 8,1128 L 1137,1128 1137,0 8,0 8,1128 Z"/>
  </g>
  <g id="bullet-char-template-10146" transform="scale(0.00048828125,-0.00048828125)">
   <path d="M 174,0 L 602,739 174,1481 1456,739 174,0 Z M 1358,739 L 309,1346 659,739 1358,739 Z"/>
  </g>
  <g id="bullet-char-template-10132" transform="scale(0.00048828125,-0.00048828125)">
   <path d="M 2015,739 L 1276,0 717,0 1260,543 174,543 174,936 1260,936 717,1481 1274,1481 2015,739 Z"/>
  </g>
  <g id="bullet-char-template-10007" transform="scale(0.00048828125,-0.00048828125)">
   <path d="M 0,-2 C -7,14 -16,27 -25,37 L 356,567 C 262,823 215,952 215,954 215,979 228,992 255,992 264,992 276,990 289,987 310,991 331,999 354,1012 L 381,999 492,748 772,1049 836,1024 860,1049 C 881,1039 901,1025 922,1006 886,937 835,863 770,784 769,783 710,716 594,584 L 774,223 C 774,196 753,168 711,139 L 727,119 C 717,90 699,76 672,76 641,76 570,178 457,381 L 164,-76 C 142,-110 111,-127 72,-127 30,-127 9,-110 8,-76 1,-67 -2,-52 -2,-32 -2,-23 -1,-13 0,-2 Z"/>
  </g>
  <g id="bullet-char-template-10004" transform="scale(0.00048828125,-0.00048828125)">
   <path d="M 285,-33 C 182,-33 111,30 74,156 52,228 41,333 41,471 41,549 55,616 82,672 116,743 169,778 240,778 293,778 328,747 346,684 L 369,508 C 377,444 397,411 428,410 L 1163,1116 C 1174,1127 1196,1133 1229,1133 1271,1133 1292,1118 1292,1087 L 1292,965 C 1292,929 1282,901 1262,881 L 442,47 C 390,-6 338,-33 285,-33 Z"/>
  </g>
  <g id="bullet-char-template-9679" transform="scale(0.00048828125,-0.00048828125)">
   <path d="M 813,0 C 632,0 489,54 383,161 276,268 223,411 223,592 223,773 276,916 383,1023 489,1130 632,1184 813,1184 992,1184 1136,1130 1245,1023 1353,916 1407,772 1407,592 1407,412 1353,268 1245,161 1136,54 992,0 813,0 Z"/>
  </g>
  <g id="bullet-char-template-8226" transform="scale(0.00048828125,-0.00048828125)">
   <path d="M 346,457 C 273,457 209,483 155,535 101,586 74,649 74,723 74,796 101,859 155,911 209,963 273,989 346,989 419,989 480,963 531,910 582,859 608,796 608,723 608,648 583,586 532,535 482,483 420,457 346,457 Z"/>
  </g>
  <g id="bullet-char-template-8211" transform="scale(0.00048828125,-0.00048828125)">
   <path d="M -4,459 L 1135,459 1135,606 -4,606 -4,459 Z"/>
  </g>
  <g id="bullet-char-template-61548" transform="scale(0.00048828125,-0.00048828125)">
   <path d="M 173,740 C 173,903 231,1043 346,1159 462,1274 601,1332 765,1332 928,1332 1067,1274 1183,1159 1299,1043 1357,903 1357,740 1357,577 1299,437 1183,322 1067,206 928,148 765,148 601,148 462,206 346,322 231,437 173,577 173,740 Z"/>
  </g>
 </defs>
 <defs class="TextEmbeddedBitmaps"/>
 <g class="SlideGroup">
  <g>
   <g id="container-id1">
    <g id="id1" class="Slide" clip-path="url(#presentation_clip_path)">
     <g class="Page">
      <g class="com.sun.star.drawing.CustomShape">
       <g id="id3">
        <rect class="BoundingBox" stroke="none" fill="none" x="5764" y="10114" width="9474" height="9474"/>
        <path fill="rgb(0,74,72)" stroke="none" d="M 10500,10164 C 13157,10164 15186,12193 15186,14850 15186,17507 13157,19536 10500,19536 7843,19536 5814,17507 5814,14850 5814,12193 7843,10164 10500,10164 Z M 5814,10164 L 5814,10164 Z M 15187,19537 L 15187,19537 Z"/>
        <path fill="none" stroke="rgb(0,235,227)" stroke-width="100" stroke-linejoin="round" d="M 10500,10164 C 13157,10164 15186,12193 15186,14850 15186,17507 13157,19536 10500,19536 7843,19536 5814,17507 5814,14850 5814,12193 7843,10164 10500,10164 Z"/>
       </g>
      </g>
      <g class="com.sun.star.drawing.CustomShape">
       <g id="id4">
        <rect class="BoundingBox" stroke="none" fill="none" x="9438" y="16158" width="2126" height="2126"/>
        <path fill="none" stroke="rgb(0,235,227)" stroke-width="600" stroke-linejoin="round" d="M 10499,16458 C 10931,16458 11261,16787 11261,17219 11261,17651 10931,17981 10499,17981 10067,17981 9738,17651 9738,17219 9738,16787 10067,16458 10499,16458 Z"/>
       </g>
      </g>
      <g class="com.sun.star.drawing.CustomShape">
       <g id="id5">
        <rect class="BoundingBox" stroke="none" fill="none" x="10036" y="13917" width="929" height="2850"/>
        <path fill="rgb(0,235,227)" stroke="none" d="M 10500,16766 L 10036,16766 10036,13917 10964,13917 10964,16766 10500,16766 Z"/>
       </g>
      </g>
      <g class="com.sun.star.drawing.CustomShape">
       <g id="id6">
        <rect class="BoundingBox" stroke="none" fill="none" x="10937" y="13918" width="859" height="763"/>
        <path fill="rgb(0,235,227)" stroke="none" d="M 10937,14299 L 10937,13918 11795,13918 11795,14680 10937,14680 10937,14299 Z"/>
       </g>
      </g>
      <g class="com.sun.star.drawing.CustomShape">
       <g id="id7">
        <rect class="BoundingBox" stroke="none" fill="none" x="10202" y="15060" width="1398" height="636"/>
        <path fill="rgb(0,235,227)" stroke="none" d="M 10202,15378 L 10202,15060 11599,15060 11599,15695 10202,15695 10202,15378 Z"/>
       </g>
      </g>
      <g class="com.sun.star.drawing.CustomShape">
       <g id="id8">
        <rect class="BoundingBox" stroke="none" fill="none" x="9128" y="13917" width="1468" height="564"/>
        <path fill="rgb(0,235,227)" stroke="none" d="M 9128,14199 L 9128,13917 10595,13917 10595,14480 9128,14480 9128,14199 Z"/>
       </g>
      </g>
      <g class="Group">
       <g class="com.sun.star.drawing.CustomShape">
        <g id="id9">
         <rect class="BoundingBox" stroke="none" fill="none" x="9166" y="12363" width="2668" height="957"/>
         <path fill="rgb(0,235,227)" stroke="none" d="M 10500,13319 L 9166,13319 9166,12363 11833,12363 11833,13319 10500,13319 Z"/>
        </g>
       </g>
       <g class="com.sun.star.drawing.CustomShape">
        <g id="id10">
         <rect class="BoundingBox" stroke="none" fill="none" x="9166" y="11414" width="2669" height="1078"/>
         <path fill="rgb(0,235,227)" stroke="none" d="M 9345,11414 C 9255,11414 9166,11503 9166,11593 L 9166,12311 C 9166,12401 9255,12491 9345,12491 L 11654,12491 C 11744,12491 11834,12401 11834,12311 L 11834,11593 C 11834,11503 11744,11414 11654,11414 L 9345,11414 Z M 9166,11414 L 9166,11414 Z M 11834,12491 L 11834,12491 Z"/>
        </g>
       </g>
      </g>
      <g class="Group">
       <g class="com.sun.star.drawing.CustomShape">
        <g id="id11">
         <rect class="BoundingBox" stroke="none" fill="none" x="9432" y="12281" width="637" height="531"/>
         <path fill="rgb(0,74,72)" stroke="none" d="M 9520,12281 C 9476,12281 9432,12325 9432,12369 L 9432,12722 C 9432,12766 9476,12811 9520,12811 L 9979,12811 C 10023,12811 10068,12766 10068,12722 L 10068,12369 C 10068,12325 10023,12281 9979,12281 L 9520,12281 Z M 9432,12281 L 9432,12281 Z M 10068,12811 L 10068,12811 Z"/>
        </g>
       </g>
       <g class="com.sun.star.drawing.CustomShape">
        <g id="id12">
         <rect class="BoundingBox" stroke="none" fill="none" x="10932" y="12281" width="637" height="531"/>
         <path fill="rgb(0,74,72)" stroke="none" d="M 11020,12281 C 10976,12281 10932,12325 10932,12369 L 10932,12722 C 10932,12766 10976,12811 11020,12811 L 11479,12811 C 11523,12811 11568,12766 11568,12722 L 11568,12369 C 11568,12325 11523,12281 11479,12281 L 11020,12281 Z M 10932,12281 L 10932,12281 Z M 11568,12811 L 11568,12811 Z"/>
        </g>
       </g>
      </g>
     </g>
    </g>
   </g>
  </g>
 </g>
</svg>